<!DOCTYPE svg PUBLIC "-//W3C//DTD SVG 1.1//EN" "http://www.w3.org/Graphics/SVG/1.1/DTD/svg11.dtd">
<svg viewBox="0 0 153 344" xmlns="http://www.w3.org/2000/svg" xml:space="preserve" style="fill-rule:evenodd;clip-rule:evenodd;stroke-linecap:round;stroke-linejoin:round;stroke-miterlimit:1.5">

  <g transform="translate(-167.702 -73.174)">
    <g id="gubbe">
      <path id="del1" d="M319.529 390.209V74.007" style="fill:none;stroke:currentColor;stroke-width:2px" transform="matrix(1 0 0 1.08329 0 -6.164)"/>
      <path id="del2" d="M319.529 74.007H201.845" style="fill:none;stroke:currentColor;stroke-width:2px"/>
      <path id="del3" d="M201.845 127.636V74.007" style="fill:none;stroke:currentColor;stroke-width:2px"/>
      <circle id="del4" cx="201.845" cy="152.288" r="24.652" style="fill:none;stroke:currentColor;stroke-width:1px"/>
      <path id="del5" d="M201.845 176.939v137.879" style="fill:none;stroke:currentColor;stroke-width:1px" transform="matrix(1 0 0 .7127 0 50.834)"/>
      <path id="del6" d="m201.845 197.864 36.623 48.015" style="fill:none;stroke:currentColor;stroke-width:1px"/>
      <path id="del7" d="m168.119 245.879 33.726-48.015" style="fill:none;stroke:currentColor;stroke-width:1px"/>
      <path id="del8" d="m201.845 275.206 24.652 105.139" style="fill:none;stroke:currentColor;stroke-width:1px"/>
      <path id="del9" d="m177.194 419.957 24.651-105.139" style="fill:none;stroke:currentColor;stroke-width:1px" transform="translate(0 -39.612)"/>
      <g id="del10">
        <path d="M192.413 140.517v7.094" style="fill:none;stroke:currentColor;stroke-width:1px" transform="matrix(1 0 0 1.09745 0 -13.693)"/>
        <path d="M192.413 140.517v7.094" style="fill:none;stroke:currentColor;stroke-width:1px" transform="matrix(1 0 0 1.09745 16.798 -13.693)"/>
        <path d="M189.52 144.633h5.786" style="fill:none;stroke:currentColor;stroke-width:1px"/>
        <path d="M189.52 144.633h5.786" style="fill:none;stroke:currentColor;stroke-width:1px" transform="translate(16.798)"/>
        <path d="M192.413 166.788s3.109-6.041 9.432-5.862c6.324.18 7.366 5.625 7.366 5.625" style="fill:none;stroke:currentColor;stroke-width:1px"/>
      </g>
    </g>
  </g>
</svg>